<?xml version="1.0" encoding="utf-8"?>
<!-- Generator: Adobe Illustrator 19.0.0, SVG Export Plug-In . SVG Version: 6.00 Build 0)  -->
<svg version="1.1" id="Layer_1" xmlns="http://www.w3.org/2000/svg" xmlns:xlink="http://www.w3.org/1999/xlink" x="0px" y="0px"
	 viewBox="-463 265 32 32" style="enable-background:new -463 265 32 32;" xml:space="preserve">
<style type="text/css">
	.st0{fill:#FFFFFF;}
</style>
<g id="calendar_1_">
	<path class="st0" d="M-433.7,268h-4.3v-2c0-0.6-0.4-1-1-1s-1,0.4-1,1v2h-6v-2c0-0.6-0.4-1-1-1s-1,0.4-1,1v2h-6v-2c0-0.6-0.4-1-1-1
		s-1,0.4-1,1v2h-4.3c-1.5,0-2.7,1.2-2.7,2.7v23.7c0,1.5,1.2,2.7,2.7,2.7h26.7c1.5,0,2.7-1.2,2.7-2.7v-23.7
		C-431,269.2-432.2,268-433.7,268z M-433,294.3c0,0.4-0.3,0.7-0.7,0.7h-26.7c-0.4,0-0.7-0.3-0.7-0.7v-23.7c0-0.4,0.3-0.7,0.7-0.7
		h4.3v2c0,0.6,0.4,1,1,1s1-0.4,1-1v-2h6v2c0,0.6,0.4,1,1,1s1-0.4,1-1v-2h6v2c0,0.6,0.4,1,1,1s1-0.4,1-1v-2h4.3
		c0.4,0,0.7,0.3,0.7,0.7V294.3z"/>
	<rect x="-456" y="277" class="st0" width="4" height="3"/>
	<rect x="-456" y="282" class="st0" width="4" height="3"/>
	<rect x="-456" y="287" class="st0" width="4" height="3"/>
	<rect x="-449" y="287" class="st0" width="4" height="3"/>
	<rect x="-449" y="282" class="st0" width="4" height="3"/>
	<rect x="-449" y="277" class="st0" width="4" height="3"/>
	<rect x="-442" y="287" class="st0" width="4" height="3"/>
	<rect x="-442" y="282" class="st0" width="4" height="3"/>
	<rect x="-442" y="277" class="st0" width="4" height="3"/>
</g>
</svg>
