<svg width="78.197" height="76.232" xmlns="http://www.w3.org/2000/svg">

 <g>
  <title>background</title>
  <rect fill="none" id="canvas_background" height="402" width="582" y="-1" x="-1"/>
 </g>
 <g>
  <title>Layer 1</title>
  <path id="svg_1" fill="#ffffff" d="m78.197,37.708l-3.726,-16.331l-9.873,-1.097l-2.511,-3.15l1.131,-9.865l-15.096,-7.265l-7.008,7.028l-4.031,0l-7.01,-7.028l-15.094,7.266l1.131,9.865l-2.511,3.15l-9.873,1.097l-3.726,16.33l8.413,5.271l0.898,3.928l-5.299,8.397l10.45,13.098l9.365,-3.293l3.632,1.749l3.262,9.375l16.754,0l3.262,-9.375l3.632,-1.749l9.365,3.293l10.45,-13.098l-5.299,-8.397l0.897,-3.928l8.415,-5.271zm-11.364,17.189l-5.13,6.43l-7.693,-2.705l-8.12,3.911l-2.68,7.699l-8.223,0l-2.68,-7.699l-8.12,-3.911l-7.693,2.705l-5.13,-6.43l4.353,-6.897l-2.01,-8.784l-6.908,-4.329l1.829,-8.017l8.109,-0.901l5.617,-7.046l-0.93,-8.101l7.41,-3.567l5.758,5.773l9.012,0l5.757,-5.773l7.411,3.566l-0.93,8.101l5.617,7.046l8.109,0.901l1.829,8.017l-6.91,4.329l-2.006,8.785l4.352,6.897zm-27.734,-31.31c-8.286,0 -15,6.713 -15,15s6.714,15 15,15s15,-6.713 15,-15s-6.714,-15 -15,-15zm0,25.5c-5.79,0 -10.5,-4.71 -10.5,-10.5s4.71,-10.5 10.5,-10.5s10.5,4.71 10.5,10.5s-4.71,10.5 -10.5,10.5z"/>
 </g>
</svg>