<?xml version="1.0" encoding="utf-8"?>
<!-- Generator: Adobe Illustrator 19.0.0, SVG Export Plug-In . SVG Version: 6.00 Build 0)  -->
<svg version="1.1" id="Layer_1" xmlns="http://www.w3.org/2000/svg" xmlns:xlink="http://www.w3.org/1999/xlink" x="0px" y="0px"
	 viewBox="-467 269 24 24" style="enable-background:new -467 269 24 24;" xml:space="preserve">
<style type="text/css">
	.st0{fill:#FFFFFF;}
</style>
<g>
	<g>
		<path class="st0" d="M-455,273c-7.9,0-12,8-12,8s3.1,8,12,8c8.1,0,12-8,12-8S-446.9,273-455,273z M-455,286c-2.9,0-5-2.2-5-5
			c0-2.8,2.1-5,5-5s5,2.2,5,5C-450,283.8-452.1,286-455,286z M-455,278c-1.7,0-3,1.4-3,3c0,1.6,1.3,3,3,3c1.7,0,3-1.4,3-3
			C-452,279.4-453.3,278-455,278z"/>
	</g>
</g>
</svg>
