<?xml version="1.0" encoding="utf-8"?>
<!-- Generator: Adobe Illustrator 19.0.0, SVG Export Plug-In . SVG Version: 6.00 Build 0)  -->
<svg version="1.1" id="Layer_1" xmlns="http://www.w3.org/2000/svg" xmlns:xlink="http://www.w3.org/1999/xlink" x="0px" y="0px"
	 viewBox="-233 35.5 491.5 491.5" style="enable-background:new -233 35.5 491.5 491.5;" xml:space="preserve">
<style type="text/css">
	.st0{fill:#FFFFFF;}
	.st1{fill:none;}
</style>
<g id="Layer_x0020_1">
	<path class="st0" d="M181.7,296.5c8.4,0,15.3-6.9,15.3-15.3c0-8.4-6.9-15.3-15.3-15.3l-337.9,0c-8.4,0-15.3,6.9-15.3,15.3
		c0,8.4,6.9,15.3,15.3,15.3L181.7,296.5z"/>
	<path class="st0" d="M28.1,112.3c0-8.4-6.9-15.3-15.3-15.3c-8.4,0-15.3,6.9-15.3,15.3l0,337.9c0,8.4,6.9,15.3,15.3,15.3
		c8.4,0,15.3-6.9,15.3-15.3C28.1,450.2,28.1,112.3,28.1,112.3z"/>
</g>
<rect x="-233" y="35.5" class="st1" width="491.5" height="491.5"/>
</svg>
